<?xml version="1.0" encoding="utf-8"?>
<!DOCTYPE svg PUBLIC "-//W3C//DTD SVG 1.1//EN" "http://www.w3.org/Graphics/SVG/1.1/DTD/svg11.dtd">
<svg version="1.1" id="Layer_1" xmlns="http://www.w3.org/2000/svg" xmlns:xlink="http://www.w3.org/1999/xlink" x="0px" y="0px"
	 fill="white" viewBox="0 0 18 18" xml:space="preserve">
<path stroke-width="0" d="M7.5,12c0.413,0,0.75-0.338,0.75-0.75v-4.5C8.25,6.337,7.913,6,7.5,6S6.75,6.337,6.75,6.75v4.5C6.75,11.662,7.087,12,7.5,12
	z M9,1.5C4.86,1.5,1.5,4.86,1.5,9c0,4.141,3.36,7.5,7.5,7.5c4.141,0,7.5-3.359,7.5-7.5C16.5,4.86,13.141,1.5,9,1.5z M9,15
	c-3.308,0-6-2.692-6-6s2.692-6,6-6s6,2.692,6,6S12.308,15,9,15z M10.5,12c0.412,0,0.75-0.338,0.75-0.75v-4.5
	C11.25,6.337,10.912,6,10.5,6S9.75,6.337,9.75,6.75v4.5C9.75,11.662,10.088,12,10.5,12z"/>
</svg>
