<?xml version="1.0" encoding="utf-8"?>
<!DOCTYPE svg PUBLIC "-//W3C//DTD SVG 1.1//EN" "http://www.w3.org/Graphics/SVG/1.1/DTD/svg11.dtd">
<svg version="1.1" id="Layer_1" xmlns="http://www.w3.org/2000/svg" xmlns:xlink="http://www.w3.org/1999/xlink" x="0px" y="0px"
	fill="white" viewBox="0 0 18 18"  xml:space="preserve">
<path stroke-width="0" d="M8.1,11.925L11.603,9.3c0.202-0.15,0.202-0.45,0-0.6L8.1,6.075c-0.248-0.188-0.6-0.008-0.6,0.3v5.25
	C7.5,11.933,7.853,12.112,8.1,11.925z M9,1.5C4.86,1.5,1.5,4.86,1.5,9c0,4.141,3.36,7.5,7.5,7.5c4.141,0,7.5-3.359,7.5-7.5
	C16.5,4.86,13.141,1.5,9,1.5z M9,15c-3.308,0-6-2.692-6-6s2.692-6,6-6s6,2.692,6,6S12.308,15,9,15z"/>
</svg>
