<?xml version="1.0" encoding="utf-8"?>
<svg version="1.1" id="Layer_1" xmlns="http://www.w3.org/2000/svg" xmlns:xlink="http://www.w3.org/1999/xlink" x="0px" y="0px"
	fill="white" viewBox="0 0 24 24" style="enable-background:new 0 0 24 24;" xml:space="preserve">
<style type="text/css">
	.st0{fill:none;}
</style>
<path class="st0" d="M0,0h24v24H0V0z"/>
<path d="M16.7,16.1c-0.8,0-1.4,0.3-2,0.8l-7.1-4.1c0.1-0.2,0.1-0.5,0.1-0.7s0-0.5-0.1-0.7l7.1-4.1c0.5,0.5,1.2,0.8,2,0.8
	c1.7,0,3-1.3,3-3s-1.3-3-3-3s-3,1.3-3,3c0,0.2,0,0.5,0.1,0.7L6.8,9.8C6.2,9.3,5.5,9,4.7,9c-1.7,0-3,1.3-3,3s1.3,3,3,3
	c0.8,0,1.5-0.3,2-0.8l7.1,4.2c-0.1,0.2-0.1,0.4-0.1,0.6c0,1.6,1.3,2.9,2.9,2.9s2.9-1.3,2.9-2.9S18.3,16.1,16.7,16.1z M16.7,4
	c0.5,0,1,0.4,1,1s-0.5,1-1,1s-1-0.4-1-1S16.2,4,16.7,4z M4.7,13c-0.6,0-1-0.4-1-1s0.4-1,1-1s1,0.4,1,1S5.3,13,4.7,13z M16.7,20
	c-0.5,0-1-0.5-1-1s0.5-1,1-1s1,0.5,1,1S17.3,20,16.7,20z"/>
</svg>
