<?xml version="1.0" encoding="utf-8"?>
<!DOCTYPE svg PUBLIC "-//W3C//DTD SVG 1.1//EN" "http://www.w3.org/Graphics/SVG/1.1/DTD/svg11.dtd">
<svg version="1.1" id="Layer_1" xmlns="http://www.w3.org/2000/svg" xmlns:xlink="http://www.w3.org/1999/xlink" x="0px" y="0px"
	 fill="white" viewBox="0 0 18 18" xml:space="preserve">
<path stroke-width="0" d="M9,1.5C4.86,1.5,1.5,4.86,1.5,9c0,4.141,3.36,7.5,7.5,7.5c4.141,0,7.5-3.359,7.5-7.5C16.5,4.86,13.141,1.5,9,1.5z M9,15
	c-3.308,0-6-2.691-6-6c0-3.308,2.692-6,6-6c3.309,0,6,2.692,6,6C15,12.309,12.309,15,9,15z M7.167,6.344h3.667
	c0.505,0,0.917,0.412,0.917,0.917v3.666c0,0.505-0.412,0.917-0.917,0.917H7.167c-0.504,0-0.917-0.412-0.917-0.917V7.261
	C6.25,6.756,6.663,6.344,7.167,6.344z"/>
</svg>
